<?xml version="1.0" encoding="UTF-8"?>
<svg version="1.1" xmlns="http://www.w3.org/2000/svg" width="4000" height="4000">
<path d="M0 0 C32.484375 -0.04125 64.96875 -0.0825 98.4375 -0.125 C108.65130615 -0.14320801 118.8651123 -0.16141602 129.38842773 -0.18017578 C141.9708252 -0.18920898 141.9708252 -0.18920898 147.88246155 -0.19088745 C151.96471889 -0.1927323 156.04692291 -0.20015249 160.12916565 -0.21115112 C268.35382136 -0.48947831 268.35382136 -0.48947831 307.2109375 37.12109375 C320.37146627 50.39468548 329.21354947 69.12518733 330 88 C330.07734375 89.7015625 330.07734375 89.7015625 330.15625 91.4375 C330.91273872 116.53346407 323.0685311 139.31414616 306 158 C299.77697222 164.31338027 292.64195412 169.51735609 285 174 C284.34 174 283.68 174 283 174 C283 174.66 283 175.32 283 176 C283.66773437 176.09152344 284.33546875 176.18304687 285.0234375 176.27734375 C288.82283971 177.1997708 292.15423864 178.81062722 295.625 180.5625 C296.33285645 180.91965088 297.04071289 181.27680176 297.77001953 181.64477539 C303.98231589 184.85805643 309.57369967 188.5763856 315 193 C315.85078125 193.68707031 316.7015625 194.37414063 317.578125 195.08203125 C333.98709925 209.04979308 343.91226792 228.8017478 347 250 C347.24229812 254.83127773 347.23106937 259.6632236 347.25 264.5 C347.2809375 266.42972656 347.2809375 266.42972656 347.3125 268.3984375 C347.39147183 288.02293637 341.76876299 305.35474111 330 321 C329.48050781 321.70382812 328.96101563 322.40765625 328.42578125 323.1328125 C305.94153196 351.11069449 266.50299991 360.28657978 232.70112813 364.27097982 C226.86491278 364.902058 221.12303235 365.14045323 215.25558472 365.12025452 C214.33045578 365.12111053 213.40532684 365.12196655 212.4521637 365.12284851 C209.37157202 365.12449134 206.29103585 365.11900033 203.21044922 365.11352539 C200.95646224 365.11321879 198.70247517 365.113353 196.44848824 365.11389065 C190.43029597 365.11411575 184.41212372 365.10833361 178.39393616 365.10128021 C172.73991841 365.09557151 167.08590545 365.09531634 161.43188477 365.09460449 C144.91292054 365.08936397 128.39396002 365.07540276 111.875 365.0625 C74.95625 365.041875 38.0375 365.02125 0 365 C0 244.55 0 124.1 0 0 Z M103 76 C103 98.77 103 121.54 103 145 C116.80369291 145.08749431 116.80369291 145.08749431 130.60742188 145.14648438 C136.25098304 145.16430424 141.89439594 145.18520823 147.5378418 145.22631836 C152.09608631 145.25930922 156.65417148 145.27693519 161.21252632 145.28463173 C162.93734808 145.29010494 164.66216275 145.30078861 166.38691521 145.31719017 C180.63816969 145.44711912 196.30592949 145.29352297 209 138 C210.051875 137.401875 211.10375 136.80375 212.1875 136.1875 C218.77876418 131.06096119 222.75992994 125.29848117 224.6875 117.0625 C225.68901363 107.24766646 224.77852279 98.31125502 218.8125 90.125 C210.67445366 80.63343244 199.12144126 77.44774797 187 76 C184.16360722 75.87199755 181.33326544 75.87305014 178.49438477 75.88647461 C177.2639016 75.88625557 177.2639016 75.88625557 176.00856018 75.8860321 C173.31948119 75.88672416 170.63047302 75.89448321 167.94140625 75.90234375 C166.06811053 75.90421044 164.19481433 75.90563316 162.32151794 75.90663147 C157.40771114 75.91043685 152.49393422 75.92025012 147.58013916 75.93133545 C141.67544421 75.94339779 135.77073923 75.94796124 129.86603546 75.95378876 C120.91066957 75.96346302 111.95536916 75.98263341 103 76 Z M103 217 C103 241.09 103 265.18 103 290 C120.02732904 290.08741842 120.02732904 290.08741842 137.0546875 290.14648438 C144.010813 290.16434044 150.96681879 290.18534551 157.92285156 290.22631836 C163.53795677 290.25918161 169.15293339 290.27690929 174.76812744 290.28463173 C176.8984784 290.29012724 179.02882322 290.30085689 181.15911865 290.31719017 C199.40471096 290.45137613 218.44952145 290.34073618 233.28515625 278.1171875 C240.7075004 270.33239342 242.59931535 261.70022669 242.47290039 251.26245117 C242.12673219 242.83902503 239.67514585 235.78489326 233.80078125 229.58984375 C221.32856197 218.57857857 204.25603451 216.8192767 188.25756836 216.88647461 C187.32966492 216.88632858 186.40176147 216.88618256 185.44573975 216.8860321 C182.41041643 216.88672299 179.37515621 216.89447642 176.33984375 216.90234375 C174.22278375 216.90421086 172.10572331 216.90563338 169.98866272 216.90663147 C164.44030547 216.91043356 158.89197476 216.92024395 153.34362793 216.93133545 C146.67380573 216.94340677 140.00397461 216.94796281 133.33414459 216.95378876 C123.22274465 216.96345708 113.11140285 216.98262977 103 217 Z " fill="#000000" transform="translate(2420,1822)"/>
<path d="M0 0 C28.38 0 56.76 0 86 0 C92.55379721 7.64609675 98.82768856 14.99430264 104.95678711 22.89624023 C108.84241354 27.89272576 112.98804884 32.64009845 117.16381836 37.39428711 C120.74836017 41.49689686 124.1709972 45.68811977 127.5 50 C131.90833229 55.70723034 136.54711178 61.17068441 141.29589844 66.59667969 C145.99029366 71.96450878 150.51893211 77.45280443 155 83 C159.77775715 88.88164328 164.59471962 94.72448277 169.5 100.5 C175.14840972 107.15048379 180.66823149 113.90120564 186.171875 120.671875 C190.23406081 125.65597532 194.33781943 130.59941456 198.5 135.5 C204.14840972 142.15048379 209.66823149 148.90120564 215.171875 155.671875 C219.23406141 160.65597605 223.33784201 165.59939462 227.5 170.5 C233.48330996 177.54540503 239.45262305 184.6034974 245 192 C245.495 96.96 245.495 96.96 246 0 C279.33 0 312.66 0 347 0 C347 120.45 347 240.9 347 365 C318.62 365 290.24 365 261 365 C246.78052585 348.59291444 246.78052585 348.59291444 241.43359375 342 C238.34693298 338.19493503 235.23808773 334.40845765 232.125 330.625 C231.52413574 329.89474609 230.92327148 329.16449219 230.30419922 328.41210938 C226.18817923 323.41908702 222.02777441 318.4663785 217.83691406 313.53613281 C212.74544881 307.53884721 207.79012755 301.43245907 202.828125 295.328125 C198.76593919 290.34402468 194.66218057 285.40058544 190.5 280.5 C184.85159028 273.84951621 179.33176851 267.09879436 173.828125 260.328125 C169.8125486 255.40121211 165.7506512 250.52206591 161.625 245.6875 C157.8421847 241.25138512 154.19467742 236.73399975 150.625 232.125 C146.17073799 226.38134635 141.49070905 220.8726598 136.70458984 215.40380859 C132.0099428 210.03589278 127.48121191 204.54737385 123 199 C116.43069911 190.91288229 109.73230386 182.9563591 103 175 C102.67 237.7 102.34 300.4 102 365 C68.34 365 34.68 365 0 365 C0 244.55 0 124.1 0 0 Z " fill="#000000" transform="translate(383,1816)"/>
<path d="M0 0 C0.80566406 0.74378906 1.61132812 1.48757813 2.44140625 2.25390625 C4.56495436 4.20498345 6.73675681 6.07468282 8.9375 7.9375 C39.23015655 34.39441126 56.82343052 76.17939399 61.75 115.375 C61.8442627 116.10976562 61.93852539 116.84453125 62.03564453 117.6015625 C67.74050555 167.322641 55.44947816 217.20906461 24.6171875 256.796875 C20.86302115 261.52361048 16.9359926 266.02511862 12.75 270.375 C12.27481934 270.87596191 11.79963867 271.37692383 11.31005859 271.89306641 C-21.57807616 306.44064662 -67.18620121 325.57371092 -114.25 330.375 C-115.20261719 330.48585938 -116.15523437 330.59671875 -117.13671875 330.7109375 C-171.36711791 336.06881405 -230.31558755 323.30212517 -273.3125 288.6875 C-274.97091765 287.26453671 -276.61733346 285.82743712 -278.25 284.375 C-279.0853125 283.64796875 -279.920625 282.9209375 -280.78125 282.171875 C-315.22082664 251.77150796 -336.87146732 211.1550689 -342.25 165.375 C-342.36085938 164.51390625 -342.47171875 163.6528125 -342.5859375 162.765625 C-347.67098026 115.21360354 -336.02032377 65.25997725 -306.25 27.375 C-305.58226563 26.48683594 -304.91453125 25.59867188 -304.2265625 24.68359375 C-272.81353573 -15.69598664 -226.03582288 -38.55745331 -176.25 -46.625 C-175.45948242 -46.75632324 -174.66896484 -46.88764648 -173.85449219 -47.02294922 C-113.71497959 -56.51375765 -45.78566163 -41.06835104 0 0 Z M-211.64453125 67.484375 C-231.92456113 91.36645399 -240.17890997 120.45517779 -238.11376953 151.41748047 C-236.2113897 173.66939641 -228.73905504 194.24919801 -214.25 211.375 C-213.62738281 212.15875 -213.00476562 212.9425 -212.36328125 213.75 C-198.00315851 231.09052557 -176.25862728 241.17088819 -154.25 244.375 C-124.52085342 246.14925348 -98.70465926 241.38226721 -75.65625 221.55493164 C-55.1281627 203.22300929 -43.81429322 177.03642261 -42.08154297 149.71923828 C-40.73113277 117.93657138 -49.38399267 89.97472217 -70.43359375 65.875 C-87.93922727 47.3736332 -112.32540565 38.70712725 -137.3359375 37.1875 C-165.28245073 36.58811098 -192.32950092 47.07244172 -211.64453125 67.484375 Z " fill="#000000" transform="translate(3154.25,1863.625)"/>
<path d="M0 0 C194.88632056 0 194.88632056 0 214.4375 4.125 C215.46133789 4.33817871 216.48517578 4.55135742 217.54003906 4.77099609 C246.9845728 11.21057961 272.01328078 23.32247246 294 44 C294.90298828 44.80630859 294.90298828 44.80630859 295.82421875 45.62890625 C316.88514151 65.2170372 328.20105291 96.44004735 329.24963379 124.62997437 C330.37396285 161.42773642 323.21687004 194.85146854 297.65625 222.6953125 C287.2943358 233.63096382 274.91457271 243.85722522 261 250 C260.34 250 259.68 250 259 250 C264.23843117 258.4387014 269.81586179 266.61176435 275.46582031 274.77734375 C278.15685887 278.67600941 280.8273673 282.58870483 283.5 286.5 C288.87321645 294.35809172 294.26089079 302.20611193 299.65722656 310.04833984 C302.39931496 314.0338407 305.13939657 318.02072162 307.87988281 322.00732422 C310.14585064 325.30349641 312.41224691 328.59937197 314.6796875 331.89453125 C316.94999202 335.19417224 319.2187485 338.49487255 321.48632812 341.79638672 C322.56804027 343.37115023 323.65011169 344.94566698 324.73242188 346.52001953 C326.53126592 349.13744411 328.32831612 351.75609228 330.125 354.375 C330.97843994 355.61600464 330.97843994 355.61600464 331.84912109 356.88208008 C332.37586426 357.65060303 332.90260742 358.41912598 333.4453125 359.2109375 C333.91469238 359.89462402 334.38407227 360.57831055 334.86767578 361.28271484 C336 363 336 363 337 365 C322.51823477 365.210494 308.03670761 365.36847177 293.55372524 365.46630955 C286.82850871 365.51266552 280.10424406 365.57582966 273.37963867 365.67895508 C266.88916497 365.77678488 260.39967958 365.83056708 253.90852547 365.85389519 C251.4328766 365.87051794 248.95728153 365.90297976 246.48205376 365.95157051 C243.012159 366.01697483 239.54634026 366.02589978 236.07592773 366.02172852 C235.05381195 366.054086 234.03169617 366.08644348 232.97860718 366.11978149 C228.72171443 366.06446033 226.07724148 365.97566621 222.84340096 363.04675102 C221.05055232 360.77011482 219.49999547 358.47700265 218 356 C217.22236411 354.86860117 216.44146455 353.73943355 215.65625 352.61328125 C214.58890625 350.97939453 214.58890625 350.97939453 213.5 349.3125 C212.64306358 348.01096976 211.7849109 346.7102398 210.92578125 345.41015625 C210.46252441 344.70906738 209.99926758 344.00797852 209.52197266 343.28564453 C206.61257642 338.91641649 203.64787275 334.58477775 200.6875 330.25 C200.04490234 329.30874268 199.40230469 328.36748535 198.74023438 327.39770508 C194.14198824 320.66579433 189.53878642 313.93726233 184.93237305 307.2109375 C181.95936912 302.86862472 178.99238582 298.52229131 176.03125 294.171875 C175.02481445 292.69364258 175.02481445 292.69364258 173.99804688 291.18554688 C172.70178473 289.28106789 171.40617251 287.37614632 170.11132812 285.47070312 C167.4778447 281.60197014 164.83374254 277.75591155 162.0625 273.984375 C160 271 160 271 160 269 C141.52 269 123.04 269 104 269 C104 300.68 104 332.36 104 365 C69.68 365 35.36 365 0 365 C0 244.55 0 124.1 0 0 Z M104 82 C104 116.98 104 151.96 104 188 C115.055 188.061875 126.11 188.12375 137.5 188.1875 C140.95662109 188.21481201 144.41324219 188.24212402 147.97460938 188.27026367 C151.14507615 188.28031312 151.14507615 188.28031312 154.31555176 188.28633118 C155.69904499 188.29085886 157.08252843 188.30123937 158.46594238 188.31672668 C178.41495544 188.52837337 196.98645899 185.38258144 211.93359375 171.16015625 C221.21278136 161.40204283 224.40712812 148.83810452 224.3125 135.6875 C224.30686035 134.85863281 224.3012207 134.02976562 224.29541016 133.17578125 C224.03356816 119.86072664 220.11728858 108.33443994 211.125 98.3125 C194.46641053 82.71782045 171.28388385 81.8128818 149.703125 81.90234375 C148.53571777 81.90335083 147.36831055 81.90435791 146.16552734 81.90539551 C141.86034138 81.91057472 137.55516956 81.92453539 133.25 81.9375 C118.77125 81.9684375 118.77125 81.9684375 104 82 Z " fill="#000000" transform="translate(1592,1816)"/>
<path d="M0 0 C34.32 0 68.64 0 104 0 C104.03738281 15.28828125 104.07476563 30.5765625 104.11328125 46.328125 C104.14357045 56.03516518 104.17460422 65.74219362 104.20898438 75.44921875 C104.26337131 90.8439017 104.31478856 106.23855204 104.34643555 121.63330078 C104.36950288 132.84763374 104.40299755 144.06188037 104.44870156 155.27614474 C104.4725165 161.20686773 104.4913218 167.13750584 104.49761391 173.06827545 C104.50371825 178.66612817 104.52390809 184.26376404 104.55427551 189.86153603 C104.56297089 191.90106759 104.56679629 193.94062761 104.56500816 195.98017693 C104.54946728 221.91725977 106.99457742 249.05845488 125.71875 268.78125 C138.56329499 281.27388965 154.70788548 285.59594153 172.3125 285.4375 C174.08753906 285.42614014 174.08753906 285.42614014 175.8984375 285.41455078 C192.93077772 285.09437644 207.17232095 280.34716623 219.71484375 268.48046875 C239.75197015 246.73076744 240.28956011 215.46087977 240.31884766 187.6574707 C240.32817309 185.59557717 240.33834552 183.53368733 240.34928894 181.47180176 C240.37630862 175.93798717 240.39165398 170.40419762 240.40471697 164.87033486 C240.42047183 159.06344536 240.44722184 153.2566061 240.4727478 147.44975281 C240.5193188 136.48207958 240.55616703 125.51439667 240.58942068 114.54667586 C240.63498839 99.70590116 240.69578125 84.86518905 240.75566864 70.02446651 C240.84946245 46.68300924 240.92309215 23.34153318 241 0 C274.66 0 308.32 0 343 0 C343.1209091 54.95542621 343.1209091 54.95542621 343.14648438 78.09765625 C343.15237395 83.38427762 343.15841745 88.67089873 343.16479492 93.95751953 C343.16598179 94.95116833 343.16598179 94.95116833 343.16719264 95.96489084 C343.17937431 105.94780825 343.20046581 115.93068144 343.22631836 125.91357422 C343.25637348 137.52489225 343.27561098 149.13617127 343.28226548 160.74752712 C343.28615063 166.88632989 343.29517589 173.0250211 343.31719017 179.16378784 C343.33781088 184.96186398 343.34378307 190.75978442 343.33932304 196.55789375 C343.34013696 198.66672174 343.34594813 200.77555587 343.35761642 202.88435173 C343.45704742 221.8100508 342.17728985 240.94442889 337.3125 259.3125 C337.05903809 260.293396 336.80557617 261.27429199 336.54443359 262.28491211 C333.93745914 271.93165593 330.3284192 281.0059356 326 290 C325.67241699 290.68416992 325.34483398 291.36833984 325.00732422 292.07324219 C318.593699 305.24562044 310.04885485 316.35173977 300 327 C299.32710937 327.73734375 298.65421875 328.4746875 297.9609375 329.234375 C268.53427095 360.31422506 223.20448698 371.75734271 181.77246094 373.10498047 C137.86938406 374.1279031 89.52500656 367.70882226 55 338 C54.13632813 337.26136719 53.27265625 336.52273438 52.3828125 335.76171875 C49.8740542 333.55416396 47.43024912 331.29344702 45 329 C44.26265625 328.32710937 43.5253125 327.65421875 42.765625 326.9609375 C25.87182515 310.96574402 14.48104598 289.1581034 8 267 C7.77618652 266.24460937 7.55237305 265.48921875 7.32177734 264.7109375 C1.16205937 243.42632402 -0.46265908 221.86858431 -0.34057617 199.8046875 C-0.33972685 197.60413118 -0.34021097 195.40357402 -0.34190369 193.20301819 C-0.34275316 187.314054 -0.32530012 181.42527873 -0.30418181 175.53635788 C-0.28523737 169.35050197 -0.28365074 163.16464021 -0.28010559 156.97875977 C-0.27083673 145.30287352 -0.24629389 133.62707305 -0.21605712 121.95122433 C-0.19242442 112.61999123 -0.17594069 103.28877395 -0.16479492 93.95751953 C-0.16399093 93.29104829 -0.16318694 92.62457706 -0.16235858 91.93790972 C-0.15541734 86.13793769 -0.14896022 80.33796512 -0.14255047 74.53799248 C-0.11446821 49.69193093 -0.05466455 24.84605025 0 0 Z " fill="#000000" transform="translate(1169,1816)"/>
<path d="M0 0 C94.71 0 189.42 0 287 0 C287 26.73 287 53.46 287 81 C226.28 81 165.56 81 103 81 C103 100.8 103 120.6 103 141 C156.46 141 209.92 141 265 141 C265 166.74 265 192.48 265 219 C211.54 219 158.08 219 103 219 C103 240.78 103 262.56 103 285 C165.7 285 228.4 285 293 285 C293 311.4 293 337.8 293 365 C196.31 365 99.62 365 0 365 C0 244.55 0 124.1 0 0 Z " fill="#000000" transform="translate(812,1816)"/>
<path d="M0 0 C15.09883329 -0.2808452 30.19754595 -0.49218383 45.29840755 -0.62174606 C52.31091268 -0.68351657 59.32179129 -0.76765539 66.33325195 -0.90527344 C73.10259392 -1.03807545 79.87024719 -1.10745032 86.64081001 -1.13852692 C89.22097908 -1.16066585 91.80105776 -1.20390185 94.38050652 -1.26876068 C115.68812823 -1.78312137 115.68812823 -1.78312137 120.52345276 2.592453 C122.95311272 5.44415214 124.47837954 8.58185383 126 12 C127.02113487 13.52855423 128.06825145 15.04070118 129.16015625 16.51953125 C130.13008958 17.94883738 131.09748564 19.37986817 132.0625 20.8125 C133.18147929 22.46018741 134.30130997 24.10729687 135.421875 25.75390625 C136.29295898 27.03418701 136.29295898 27.03418701 137.18164062 28.34033203 C140.36455707 32.99590289 143.58857882 37.62277104 146.8125 42.25 C147.81361816 43.68738525 147.81361816 43.68738525 148.83496094 45.15380859 C150.1996361 47.11263027 151.56454657 49.07128805 152.9296875 51.02978516 C156.39247218 55.9977378 159.85310106 60.96718921 163.3125 65.9375 C163.97862305 66.89454834 164.64474609 67.85159668 165.33105469 68.83764648 C169.70424349 75.1253274 174.05514002 81.42782901 178.38720703 87.74389648 C181.89224125 92.85218194 185.43260613 97.93503124 189 103 C192.00382428 100.15926057 194.34821688 97.23717602 196.65234375 93.80859375 C197.3395752 92.79128174 198.02680664 91.77396973 198.73486328 90.72583008 C199.4617334 89.64068115 200.18860352 88.55553223 200.9375 87.4375 C201.70247061 86.30264697 202.46793845 85.16812896 203.23388672 84.03393555 C204.77293143 81.75449771 206.3101864 79.47386989 207.84619141 77.19238281 C210.75218723 72.88510539 213.68552985 68.59697098 216.625 64.3125 C221.25919892 57.54791829 225.88223921 50.77581276 230.5 44 C231.76428739 42.14580911 233.02861004 40.29164226 234.29296875 38.4375 C236.1189283 35.75974341 237.94441175 33.08167066 239.76806641 30.40234375 C241.4481585 27.93394845 243.13017359 25.46687286 244.8125 23 C245.52986328 21.94425781 245.52986328 21.94425781 246.26171875 20.8671875 C247.22295847 19.45910121 248.20857376 18.0673414 249.21800232 16.69338989 C251.12612349 13.95532555 251.12612349 13.95532555 252.61341858 10.521698 C254.74392259 6.29210269 257.0360377 2.70671672 261 0 C269.09269891 -2.58267856 278.10519982 -1.62450616 286.4765625 -1.3671875 C288.97328119 -1.34105132 291.47007205 -1.32113437 293.96688843 -1.30715942 C299.84738892 -1.2593238 305.72409108 -1.14923113 311.60304105 -1.00826657 C318.95996143 -0.83573552 326.31735255 -0.76109313 333.67578125 -0.68359375 C346.78572331 -0.5337816 359.89262691 -0.29780274 373 0 C371.73765777 3.24984913 370.48692834 5.98179807 368.41796875 8.79296875 C367.64839844 9.84774414 367.64839844 9.84774414 366.86328125 10.92382812 C366.31027344 11.67083984 365.75726562 12.41785156 365.1875 13.1875 C364.00376568 14.80588677 362.82017591 16.42437929 361.63671875 18.04296875 C361.03134277 18.86716309 360.4259668 19.69135742 359.80224609 20.54052734 C357.01410497 24.34542219 354.2577876 28.17308077 351.5 32 C350.41683927 33.50012464 349.3335054 35.00012429 348.25 36.5 C347.71375 37.2425 347.1775 37.985 346.625 38.75 C323.33333333 71 300.04166667 103.25 276.75 135.5 C276.21318604 136.24330566 275.67637207 136.98661133 275.12329102 137.75244141 C274.04574948 139.24437213 272.96811358 140.73623472 271.89038086 142.22802734 C269.09263417 146.1009184 266.29680084 149.97517062 263.50390625 153.8515625 C262.92769531 154.65078125 262.35148437 155.45 261.7578125 156.2734375 C260.66735098 157.78601316 259.57746029 159.29900059 258.48828125 160.8125 C257.988125 161.50601562 257.48796875 162.19953125 256.97265625 162.9140625 C256.48941895 163.58856445 256.00618164 164.26306641 255.50830078 164.95800781 C254.45578368 166.38294356 253.36753572 167.78187225 252.25341797 169.15917969 C251.69412598 169.85688477 251.13483398 170.55458984 250.55859375 171.2734375 C250.04482178 171.89395996 249.5310498 172.51448242 249.00170898 173.15380859 C247.80470784 174.94831411 247.80470784 174.94831411 248.19848633 177.015625 C249.02974017 179.07363025 249.97047849 180.67573524 251.265625 182.4765625 C251.73669678 183.137771 252.20776855 183.79897949 252.69311523 184.48022461 C253.20688721 185.18800049 253.72065918 185.89577637 254.25 186.625 C254.7850415 187.37209229 255.32008301 188.11918457 255.87133789 188.88891602 C257.57469272 191.26380716 259.28677648 193.63222102 261 196 C262.07713952 197.49586582 263.15396829 198.99195546 264.23046875 200.48828125 C266.92947474 204.235369 269.63627597 207.97675143 272.34570312 211.71630859 C275.12918202 215.55879112 277.90874599 219.4040997 280.6875 223.25 C281.23140381 224.00273193 281.77530762 224.75546387 282.33569336 225.53100586 C285.97146627 230.56629553 289.58776084 235.61505986 293.19213867 240.67285156 C296.60863252 245.46267563 300.05238955 250.23253869 303.5 255 C307.75147723 260.87907292 311.98602185 266.76947738 316.19580078 272.6784668 C319.56706259 277.40566497 322.96998757 282.10957694 326.375 286.8125 C330.62242981 292.68131403 334.83239752 298.57424407 339 304.5 C344.7147738 312.62362015 350.52234567 320.67788582 356.35009766 328.72070312 C358.01084677 331.01498452 359.6681125 333.31174037 361.32421875 335.609375 C362.42444915 337.13543831 363.52470929 338.66148017 364.625 340.1875 C365.15689941 340.92532715 365.68879883 341.6631543 366.23681641 342.42333984 C368.89481946 346.10484086 371.56562271 349.77597059 374.26171875 353.4296875 C374.77589355 354.12682861 375.29006836 354.82396973 375.81982422 355.54223633 C376.79450332 356.86141683 377.77129965 358.17903637 378.75048828 359.49487305 C382 363.89080469 382 363.89080469 382 365 C366.7330472 366.0374304 351.46769568 366.80806787 336.17323017 367.27973557 C329.06483602 367.50488171 321.97873828 367.8110135 314.88452148 368.31933594 C270.40125014 371.44354394 270.40125014 371.44354394 258.2085495 363.08676147 C247.14965754 353.24540675 240.7673742 339.66925681 234.67597961 326.43998718 C231.12513616 318.91193146 226.28451359 312.41207602 221.31210136 305.77618027 C218.22355622 301.59524342 215.43092204 297.20623913 212.58984375 292.85546875 C211.97025284 291.91238358 211.35066193 290.9692984 210.71229553 289.99763489 C208.78462377 287.06270984 206.86078933 284.12529833 204.9375 281.1875 C202.98148494 278.20367873 201.02461923 275.22042258 199.06629944 272.2381134 C197.86059708 270.40158279 196.65629108 268.56413444 195.45359802 266.72563171 C194.91195511 265.89989151 194.37031219 265.07415131 193.81225586 264.22338867 C193.10376747 263.14114265 193.10376747 263.14114265 192.38096619 262.03703308 C191.41296857 260.60916092 190.3881108 259.21897948 189.32423401 257.86103821 C188 256 188 256 188 254 C187.34 254 186.68 254 186 254 C185.7522583 254.69794678 185.5045166 255.39589355 185.24926758 256.11499023 C183.81810237 259.42006728 182.02776196 262.17398026 180.01171875 265.16015625 C179.60539215 265.76542648 179.19906555 266.37069672 178.78042603 266.99430847 C177.89077898 268.31876897 176.99909 269.64185963 176.10562134 270.96374512 C173.62012433 274.64216729 171.15108035 278.33162499 168.6796875 282.01953125 C168.14811539 282.81193207 167.61654327 283.60433289 167.06886292 284.42074585 C160.4286349 294.32763213 153.871559 304.28927549 147.3125 314.25 C146.1643279 315.99228289 145.01613494 317.73455203 143.86791992 319.47680664 C143.30590881 320.337276 142.74389771 321.19774536 142.16485596 322.08428955 C140.99504262 323.84588646 139.79771826 325.58948902 138.57513428 327.31488037 C135.3295391 331.98123261 132.73296096 336.41234993 130.77948189 341.73328876 C127.35300265 350.92704324 123.10909459 360.30373621 114 365 C96.84668162 370.25300802 76.9505096 367.92131506 59.18562657 367.08879244 C52.07026234 366.76112776 44.95399443 366.60433193 37.83293688 366.45938456 C23.21422988 366.15811515 8.60732507 365.64979363 -6 365 C-5.06275051 363.58661399 -4.12447824 362.17390617 -3.18579102 360.76147461 C-2.66340347 359.97469833 -2.14101593 359.18792206 -1.60279846 358.37730408 C0.86883785 354.7113216 3.46033343 351.13644342 6.0625 347.5625 C7.20968033 345.98050132 8.35681444 344.39846912 9.50390625 342.81640625 C10.37426514 341.61781982 10.37426514 341.61781982 11.26220703 340.39501953 C14.014761 336.60146032 16.75705813 332.80051175 19.5 329 C20.5832798 327.49996134 21.66661324 325.99996141 22.75 324.5 C23.28625 323.7575 23.8225 323.015 24.375 322.25 C68.25 261.5 68.25 261.5 69.87573242 259.24902344 C70.95667191 257.75231299 72.03756401 256.25556832 73.1184082 254.75878906 C75.8629754 250.95817363 78.60841966 247.15819702 81.35546875 243.359375 C86.65621811 236.02749738 91.94678705 228.68905364 97.1965332 221.32055664 C100.56749275 216.59364264 103.97021561 211.89008566 107.375 207.1875 C113.65594744 198.50922296 119.84182517 189.7656903 126 181 C121.81953735 174.13719272 117.3244907 167.62600564 112.53955078 161.17895508 C108.62439974 155.88883245 104.82720292 150.52305244 101.0625 145.125 C100.47025635 144.27583008 99.8780127 143.42666016 99.26782227 142.55175781 C98.08255613 140.85181322 96.8974148 139.15178159 95.71240234 137.45166016 C93.11266786 133.72959946 90.49533588 130.02007456 87.875 126.3125 C87.38781494 125.6230127 86.90062988 124.93352539 86.39868164 124.22314453 C85.42182597 122.84090269 84.44485714 121.45874081 83.46777344 120.07666016 C80.97679014 116.55232484 78.48855097 113.02605299 76 109.5 C75.00001278 108.08332432 74.00001278 106.66665764 73 105.25 C64 92.5 64 92.5 55 79.75 C54.50516113 79.0489917 54.01032227 78.3479834 53.50048828 77.62573242 C52.49880957 76.20666042 51.4971821 74.78755225 50.49560547 73.3684082 C48.02170505 69.86324726 45.54696634 66.35868485 43.0703125 62.85546875 C37.6949482 55.24990011 32.33754623 47.63216495 27 40 C22.55076768 33.6394088 18.09710797 27.28203529 13.625 20.9375 C13.13612305 20.24325928 12.64724609 19.54901855 12.14355469 18.83374023 C8.61307651 13.83343279 5.00450429 8.89827299 1.328125 4.00390625 C0 2 0 2 0 0 Z " fill="#000000" transform="translate(3236,1822)"/>
<path d="M0 0 C3.46658605 1.15552868 3.68125556 1.66263496 5.42578125 4.69921875 C6.11510742 5.87786499 6.11510742 5.87786499 6.81835938 7.08032227 C7.31142578 7.94069092 7.80449219 8.80105957 8.3125 9.6875 C9.38932115 11.52496716 10.4688492 13.36085008 11.55078125 15.1953125 C12.11490723 16.15211914 12.6790332 17.10892578 13.26025391 18.09472656 C16.08298967 22.80852892 19.03624284 27.43649729 22 32.0625 C22.59022949 32.98522705 23.18045898 33.9079541 23.78857422 34.85864258 C24.96416426 36.69564328 26.14026259 38.53231882 27.31689453 40.36865234 C36.34527969 54.48352546 45.20434389 68.70623854 54.07666016 82.91943359 C57.21589223 87.94746487 60.35807151 92.97365341 63.5 98 C64.75001464 99.99999085 66.00001462 101.99999086 67.25 104 C67.86875 104.99 68.4875 105.98 69.125 107 C104.75 164 104.75 164 106.62573242 167.0012207 C107.87323247 168.99718828 109.12079088 170.99311939 110.3684082 172.98901367 C113.53214182 178.05040916 116.69479561 183.11247394 119.85546875 188.17578125 C125.55021995 197.29664293 131.25047521 206.41354171 137 215.5 C143.39985753 225.61423388 149.73875893 235.76629843 156.07666016 245.91943359 C159.21589223 250.94746487 162.35807108 255.97365368 165.5 261 C166.73699382 262.97915751 167.97397294 264.95832421 169.2109375 266.9375 C169.82807617 267.92492188 170.44521484 268.91234375 171.08105469 269.9296875 C184.7578125 291.8125 184.7578125 291.8125 186.41894531 294.484375 C187.45352679 296.1305034 188.50443247 297.76651191 189.57324219 299.390625 C190.77164637 301.22493395 191.89490554 303.10800948 193 305 C192.67 305.66 192.34 306.32 192 307 C188.0422236 303.61790017 184.14900542 300.21642354 180.5 296.5 C178.10946833 294.06610268 175.64953738 291.78644441 173.0625 289.5625 C170.25423653 287.14382221 167.60029407 284.64100317 165 282 C162.41990785 279.37959391 159.78896393 276.89676588 157 274.5 C153.48858352 271.48237647 150.24692598 268.26640919 147 264.96875 C145.06108998 263.06013545 143.06300449 261.27289448 141 259.5 C137.48858352 256.48237647 134.24692598 253.26640919 131 249.96875 C129.06108998 248.06013545 127.06300449 246.27289448 125 244.5 C121.48858352 241.48237647 118.24692598 238.26640919 115 234.96875 C113.06108998 233.06013545 111.06300449 231.27289448 109 229.5 C105.48998489 226.48358077 102.24948724 223.26904868 99.00390625 219.97265625 C96.41753849 217.42662171 93.6846472 215.07978443 90.93359375 212.71484375 C88.43430862 210.49830603 86.11718116 208.12837719 83.77734375 205.74609375 C81.93406426 203.93522357 80.02177201 202.24678646 78.0625 200.5625 C75.25423653 198.14382221 72.60029407 195.64100317 70 193 C67.41990785 190.37959391 64.78896393 187.89676588 62 185.5 C58.48858352 182.48237647 55.24692598 179.26640919 52 175.96875 C50.06108998 174.06013545 48.06300449 172.27289448 46 170.5 C42.57217403 167.55421205 39.38865183 164.43824653 36.25 161.1875 C35.5075 160.465625 34.765 159.74375 34 159 C33.4536792 158.37561035 32.9073584 157.7512207 32.34448242 157.10791016 C28.64243542 153.18294495 28.64243542 153.18294495 23.60791016 151.91699219 C20.73894714 152.52726998 18.07575522 153.39026394 15.3125 154.375 C13.11863252 155.0720646 10.92461161 155.76864645 8.73046875 156.46484375 C7.52052246 156.86558105 6.31057617 157.26631836 5.06396484 157.67919922 C-2.02605821 160.01024714 -9.20044297 162.07445685 -16.35708618 164.18951416 C-18.85605276 164.93187142 -21.35158004 165.68487114 -23.84643555 166.44091797 C-24.62956619 166.6767308 -25.41269684 166.91254364 -26.21955872 167.15550232 C-27.69979879 167.60123706 -29.17916917 168.04987356 -30.65751648 168.50184631 C-33.55050061 169.36804606 -35.96112549 170 -39 170 C-38.35236309 162.43887591 -36.802985 155.26538675 -35.04418945 147.890625 C-34.73805657 146.59008267 -34.43239048 145.28943039 -34.12715149 143.98867798 C-33.30101403 140.47411189 -32.46835857 136.96111971 -31.6344645 133.44838715 C-30.75531695 129.74008172 -29.88218168 126.03036091 -29.00834656 122.32080078 C-27.34818792 115.27729565 -25.68255311 108.23509731 -24.01498908 101.19334221 C-22.14043245 93.27618842 -20.27242295 85.35749472 -18.40478957 77.43870544 C-12.31368796 51.61529159 -6.21334255 25.79434119 0 0 Z " fill="#000000" transform="translate(2169,1807)"/>
<path d="M0 0 C1.56252158 3.9707873 0.37368113 7.32329364 -0.74047852 11.24682617 C-1.03907713 12.34257524 -1.03907713 12.34257524 -1.34370804 13.46046066 C-2.01294285 15.90724941 -2.69597227 18.34997136 -3.37890625 20.79296875 C-3.85908872 22.53829716 -4.33837196 24.28387319 -4.81681824 26.02967834 C-5.84728049 29.78270118 -6.88374326 33.5339951 -7.92492676 37.28405762 C-9.5749972 43.22746313 -11.21205119 49.17440192 -12.84667969 55.12207031 C-14.53678195 61.26940983 -16.22766123 67.41652867 -17.92306519 73.56240845 C-21.66810681 87.13953041 -25.38580015 100.72379349 -29.07421875 114.31640625 C-29.31444763 115.20158873 -29.55467651 116.0867712 -29.80218506 116.99877739 C-31.9147791 124.78457038 -34.02438389 132.57117262 -36.13360596 140.35787964 C-37.46988387 145.29085889 -38.80689329 150.22363938 -40.14453125 155.15625 C-40.35620941 155.9370096 -40.56788757 156.7177692 -40.78598022 157.52218819 C-43.5130729 167.57702659 -46.27394158 177.62151066 -49.07421875 187.65625 C-49.66128897 189.76916235 -50.2482107 191.88211596 -50.83496094 193.99511719 C-51.85876567 197.68157884 -52.89592821 201.36385816 -53.94238281 205.04394531 C-54.37750438 206.60726855 -54.812116 208.17073385 -55.24609375 209.734375 C-55.44377853 210.41342896 -55.64146332 211.09248291 -55.84513855 211.79211426 C-56.87521136 215.55865972 -57.46523643 218.3304517 -56 222 C-54.13679596 224.19231753 -52.30901182 226.1336905 -50.2421875 228.11328125 C-49.37027267 228.97314888 -49.37027267 228.97314888 -48.48074341 229.85038757 C-46.62139566 231.68079624 -44.74897824 233.49708358 -42.875 235.3125 C-40.43071808 237.70018356 -37.99185437 240.09333753 -35.5546875 242.48828125 C-34.96851151 243.0627298 -34.38233551 243.63717834 -33.77839661 244.22903442 C-30.16219851 247.79179149 -26.72751226 251.44502613 -23.4453125 255.32104492 C-21.12256476 258.01927739 -18.60131458 260.50683492 -16.0625 263 C-15.56943359 263.48855469 -15.07636719 263.97710938 -14.56835938 264.48046875 C-13.38126771 265.65603525 -12.19099502 266.82838826 -11 268 C-13.7321882 270.7321882 -16.79778515 271.19506807 -20.43798828 272.12866211 C-21.21158723 272.33288284 -21.98518618 272.53710358 -22.78222752 272.74751282 C-25.37659184 273.43064305 -27.97341275 274.1039217 -30.5703125 274.77734375 C-32.41298822 275.26057876 -34.25549894 275.74444332 -36.09785461 276.22889709 C-41.07226926 277.53516514 -46.04882211 278.83310575 -51.02582932 280.12945557 C-56.18386414 281.47430609 -61.34005505 282.82618506 -66.49633789 284.17773438 C-72.7944068 285.82821953 -79.09261795 287.47814785 -85.39167786 289.12484741 C-98.04434003 292.43325516 -110.6906043 295.76466509 -123.32932281 299.12594795 C-125.88914532 299.80666391 -128.44914807 300.48669751 -131.00921631 301.16648865 C-132.6563731 301.60390848 -134.30352888 302.04133213 -135.95068359 302.47875977 C-137.14479103 302.79587056 -137.14479103 302.79587056 -138.36302185 303.11938763 C-142.28128804 304.16028026 -146.19909556 305.20284697 -150.11602783 306.24874878 C-153.75898283 307.22138977 -157.40311802 308.18947439 -161.04820824 309.15408134 C-162.99752035 309.6712953 -164.94547798 310.19360575 -166.89338684 310.71607971 C-168.04417221 311.01989059 -169.19495758 311.32370148 -170.38061523 311.63671875 C-171.37633041 311.90186279 -172.37204559 312.16700684 -173.39793396 312.44018555 C-176 313 -176 313 -180 313 C-178.37160894 306.81833713 -175.05752905 301.68909366 -171.8125 296.25 C-170.53580222 294.08632451 -169.25978329 291.92224834 -167.984375 289.7578125 C-167.32501953 288.64180664 -166.66566406 287.52580078 -165.98632812 286.37597656 C-162.81074612 280.97873616 -159.68628131 275.55233349 -156.5625 270.125 C-155.30469949 267.94270142 -154.04688692 265.7604098 -152.7890625 263.578125 C-151.52596731 261.3854595 -150.26294656 259.19275111 -149 257 C-141.12337411 243.32445686 -133.22879908 229.66039042 -125.26708984 216.03417969 C-119.10080946 205.47379718 -112.9950405 194.87873234 -106.89111328 184.28222656 C-103.76319852 178.85340058 -100.63141552 173.42680719 -97.5 168 C-96.24998121 165.83334417 -94.99998122 163.6666775 -93.75 161.5 C-81.25 139.83333333 -68.75 118.16666667 -56.25 96.5 C-55.63116943 95.42733887 -55.01233887 94.35467773 -54.37475586 93.24951172 C-53.12564482 91.08442929 -51.87645871 88.91939018 -50.62719727 86.75439453 C-47.48797691 81.31384294 -44.35009437 75.87252784 -41.21484375 70.4296875 C-34.60825457 58.96370628 -27.97773893 47.51256186 -21.29785156 36.08911133 C-18.12239345 30.65405361 -14.96335507 25.20999626 -11.82421875 19.75390625 C-11.47747101 19.15146088 -11.13072327 18.5490155 -10.77346802 17.92831421 C-9.08303604 14.99061073 -7.39469183 12.05174774 -5.70898438 9.11132812 C-5.10763672 8.06525391 -4.50628906 7.01917969 -3.88671875 5.94140625 C-3.35264404 5.01013916 -2.81856934 4.07887207 -2.26831055 3.11938477 C-1 1 -1 1 0 0 Z " fill="#000000" transform="translate(2129,1860)"/>
<path d="M0 0 C4.35432986 0.85423184 6.21445655 2.87681742 9.3125 6.0625 C10.21613281 6.98160156 11.11976563 7.90070312 12.05078125 8.84765625 C14.13589927 11.03719563 16.11856801 13.29276077 18.08309937 15.59068298 C22.38121257 20.5121096 26.98320815 25.10073585 31.61962891 29.70141602 C32.56843499 30.64665717 33.51700086 31.59213949 34.46534729 32.5378418 C36.49260221 34.55859448 38.52135789 36.57782348 40.5512886 38.59588814 C43.76572517 41.79188568 46.97568492 44.9923548 50.18490601 48.19358826 C59.30601747 57.29065589 68.43309098 66.38172804 77.56445312 75.46850586 C82.61935893 80.49880938 87.67062085 85.53274396 92.71805322 90.57054657 C95.90300313 93.74898418 99.09238964 96.92287821 102.28522134 100.09339726 C104.27388416 102.07027422 106.25829868 104.05137403 108.24157524 106.03365326 C109.59096754 107.3798983 110.94535062 108.72113516 112.2999115 110.06217957 C113.11284164 110.87641388 113.92577179 111.69064819 114.76333618 112.52955627 C115.46494684 113.22802453 116.1665575 113.92649279 116.88942909 114.64612675 C119.50404951 117.56215532 121.72354423 120.81296192 124 124 C4.54 124 -114.92 124 -238 124 C-234.77290438 121.84860292 -232.31242578 121.14994023 -228.56933594 120.1784668 C-227.91378723 120.00662306 -227.25823853 119.83477932 -226.58282471 119.6577282 C-224.38469229 119.08290076 -222.1845562 118.51614934 -219.984375 117.94921875 C-218.41198932 117.53951449 -216.83974732 117.12925846 -215.26763916 116.7184906 C-211.87942218 115.8342198 -208.49035277 114.95332289 -205.10058594 114.07501221 C-199.69829489 112.67500447 -194.29811586 111.26698058 -188.8984375 109.85693359 C-187.53070316 109.4997739 -187.53070316 109.4997739 -186.13533783 109.13539886 C-184.27484154 108.64952079 -182.41435525 108.16360443 -180.55387878 107.67765045 C-177.71105236 106.93531612 -174.86805104 106.19365457 -172.02502441 105.4520874 C-153.49448215 100.61675575 -134.98308567 95.71032581 -116.47653198 90.78408813 C-114.00210828 90.12556108 -111.527564 89.46748915 -109.05297852 88.80957031 C-92.95481349 84.52939151 -76.85974207 80.23812536 -60.77552795 75.90578461 C-58.73711636 75.35681062 -56.69859405 74.80824978 -54.66003418 74.25982666 C-48.48945485 72.5995513 -42.31987172 70.93574024 -36.15234375 69.26416016 C-34.02347585 68.69028739 -31.89457201 68.11654795 -29.765625 67.54296875 C-28.80730774 67.28161636 -27.84899048 67.02026398 -26.8616333 66.75099182 C-25.9923822 66.51758591 -25.1231311 66.28417999 -24.22753906 66.04370117 C-23.47764709 65.84056808 -22.72775513 65.637435 -21.95513916 65.42814636 C-20 65 -20 65 -17 65 C-16.89595856 64.35544357 -16.79191711 63.71088715 -16.6847229 63.04679871 C-15.41330062 55.59029755 -13.57950968 48.38824517 -11.5234375 41.11328125 C-11.19332672 39.93025925 -10.86321594 38.74723724 -10.52310181 37.52836609 C-9.47837053 33.78842852 -8.42680415 30.05045385 -7.375 26.3125 C-6.66100387 23.76119485 -5.94745776 21.20976371 -5.234375 18.65820312 C-3.49478292 12.43733621 -1.74959063 6.21806182 0 0 Z " fill="#000000" transform="translate(2262,2063)"/>
<path d="M0 0 C2.515625 2.2578125 2.515625 2.2578125 5.25 5.125 C8.2766212 8.2828331 11.28953259 11.28683239 14.6171875 14.125 C20.33565594 19.06355398 25.57111133 24.50114798 30.875 29.875 C32.93201953 31.95860255 34.99233984 34.03886023 37.0546875 36.1171875 C37.95687012 37.03097168 38.85905273 37.94475586 39.78857422 38.88623047 C41.81337261 41.02949166 41.81337261 41.02949166 44 42 C44.44710291 48.93009513 42.7866099 55.29026077 41.2265625 62.01171875 C40.94275726 63.25750198 40.65895203 64.50328522 40.36654663 65.78681946 C39.76654732 68.41258538 39.16367173 71.03747551 38.55566406 73.66137695 C37.77804339 77.01845464 37.0118202 80.378008 36.24923134 83.73852825 C35.51788714 86.95582753 34.77823779 90.17121112 34.0390625 93.38671875 C33.76502594 94.59091965 33.49098938 95.79512054 33.20864868 97.03581238 C32.94852997 98.15409927 32.68841125 99.27238617 32.42041016 100.42456055 C32.19390778 101.40716354 31.9674054 102.38976654 31.73403931 103.40214539 C30.45458403 107.93029364 30.45458403 107.93029364 29 110 C26.5912323 111.16436768 26.5912323 111.16436768 23.52807617 112.10644531 C22.38316208 112.46651672 21.23824799 112.82658813 20.05863953 113.1975708 C18.81596817 113.57065369 17.57329681 113.94373657 16.29296875 114.328125 C15.00707773 114.7248291 13.7215442 115.12269367 12.43635559 115.52166748 C9.74155569 116.35471987 7.04387965 117.17738824 4.34350586 117.9921875 C0.88875294 119.03492097 -2.55959431 120.09715603 -6.00618458 121.16652298 C-8.66131773 121.98903281 -11.31871026 122.80401901 -13.97693443 123.61647797 C-15.86603559 124.19440737 -17.75392846 124.77628159 -19.64179993 125.35821533 C-20.7961705 125.7056781 -21.95054108 126.05314087 -23.13989258 126.41113281 C-24.15312088 126.71883606 -25.16634918 127.02653931 -26.21028137 127.34356689 C-28.94801851 127.98776853 -31.20140101 128.22162035 -34 128 C-35.90942383 126.73413086 -35.90942383 126.73413086 -37.70703125 124.96484375 C-38.37669922 124.31966797 -39.04636719 123.67449219 -39.73632812 123.00976562 C-40.42146484 122.32591797 -41.10660156 121.64207031 -41.8125 120.9375 C-43.17187607 119.61194573 -44.53255198 118.28772314 -45.89453125 116.96484375 C-46.57257812 116.30226563 -47.250625 115.6396875 -47.94921875 114.95703125 C-50.57442598 112.45183349 -53.30197484 110.08091056 -56.04663086 107.70825195 C-59.22906739 104.92516129 -62.29803917 102.02357448 -65.375 99.125 C-70.56077128 94.25446134 -75.79281254 89.45788785 -81.14453125 84.76953125 C-83 83 -83 83 -85 80 C-84.66673279 77.1091156 -84.66673279 77.1091156 -83.83764648 73.54077148 C-83.68991287 72.89005676 -83.54217926 72.23934204 -83.38996887 71.56890869 C-82.89709086 69.41627957 -82.38510524 67.26876743 -81.87109375 65.12109375 C-81.52098109 63.62813528 -81.1713837 62.13505589 -80.82228088 60.64186096 C-80.08695183 57.51174136 -79.34147129 54.38424185 -78.58959961 51.25805664 C-77.62692084 47.24931867 -76.69568819 43.2340082 -75.77270412 39.21597195 C-75.05912926 36.13007436 -74.32599866 33.04907368 -73.58717537 29.96913338 C-73.23555523 28.49033524 -72.89076459 27.00989611 -72.55291557 25.52789116 C-72.07821472 23.45640067 -71.57683085 21.39319413 -71.06811523 19.32983398 C-70.7889476 18.15307602 -70.50977997 16.97631805 -70.22215271 15.76390076 C-69 13 -69 13 -66.74649048 11.68841553 C-63.83157112 10.95778283 -60.93360343 10.2536946 -57.98803711 9.65551758 C-56.80008041 9.41219193 -55.61212372 9.16886627 -54.38816833 8.91816711 C-53.11409622 8.66286728 -51.84002411 8.40756744 -50.52734375 8.14453125 C-49.19882358 7.87611958 -47.87033797 7.60753679 -46.54188538 7.33879089 C-43.76450846 6.77824378 -40.98639101 6.22155017 -38.20776367 5.66723633 C-34.64943704 4.95679362 -31.0937345 4.23404355 -27.53855038 3.50806141 C-24.7988086 2.9504952 -22.0575229 2.4008457 -19.31573677 1.85342979 C-17.3670674 1.46249279 -15.4199598 1.0637969 -13.47288513 0.66499329 C-12.2880806 0.43112411 -11.10327606 0.19725494 -9.88256836 -0.04370117 C-8.84063828 -0.25306808 -7.79870819 -0.462435 -6.72520447 -0.67814636 C-4.05200176 -0.99385846 -2.48671001 -0.97391778 0 0 Z " fill="#000000" transform="translate(2189,1990)"/>
</svg>
